PathFileType	4	(X/Y/Z)	C:/Users/opensim2020/Desktop/walking_exp_matlab/subject01_walking05_straight_04.trc																																																																																																																															
DataRate	CameraRate	NumFrames	NumMarkers	Units	OrigDataRate	OrigDataStartFrame	OrigNumFrames																																																																																																																											
100	100	4	43	mm	100	2845	283																																																																																																																											
Frame#	Time	LFHD			RFHD			LBHD			RBHD			C7			T10			CLAV			STRN			RBAK			LSHO			LUPA			LELB			LFRM			LWRA			LWRB			LFIN			RSHO			RUPA			RELB			RFRM			RWRA			RWRB			RFIN			LASI			RASI			LPSI			RPSI			LTHI			LKNE			LTIB			LANK			LHEE			LTOE			RTHI			RKNE			RTIB			RANK			RHEE			RTOE			*39			*40			*41			*42		
		X1	Y1	Z1	X2	Y2	Z2	X3	Y3	Z3	X4	Y4	Z4	X5	Y5	Z5	X6	Y6	Z6	X7	Y7	Z7	X8	Y8	Z8	X9	Y9	Z9	X10	Y10	Z10	X11	Y11	Z11	X12	Y12	Z12	X13	Y13	Z13	X14	Y14	Z14	X15	Y15	Z15	X16	Y16	Z16	X17	Y17	Z17	X18	Y18	Z18	X19	Y19	Z19	X20	Y20	Z20	X21	Y21	Z21	X22	Y22	Z22	X23	Y23	Z23	X24	Y24	Z24	X25	Y25	Z25	X26	Y26	Z26	X27	Y27	Z27	X28	Y28	Z28	X29	Y29	Z29	X30	Y30	Z30	X31	Y31	Z31	X32	Y32	Z32	X33	Y33	Z33	X34	Y34	Z34	X35	Y35	Z35	X36	Y36	Z36	X37	Y37	Z37	X38	Y38	Z38	X39	Y39	Z39	X40	Y40	Z40	X41	Y41	Z41	X42	Y42	Z42	X43	Y43	Z43
																																																																																																																																		
71	0.7	-828.67206	1669.67029	-1488.38879	-803.05103	1675.49658	-1377.2749	-943.26428	1624.41321	-1467.17456	-920.48193	1629.64355	-1349.55444	-975.16882	1431.73425	-1424.43494	-1016.20178	1139.98132	-1420.13342	-832.82654	1361.64001	-1437.67871	-792.3363	1206.84021	-1445.79639	-1026.62158	1238.37183	-1342.22656	-910.37543	1395.87988	-1591.87183	-977.1286	1216.62207	-1667.07251	-1014.83728	1073.15833	-1659.25439	-1009.63593	959.38782	-1681.79358	-971.55377	824.90594	-1656.00366	-1023.67175	837.73737	-1685.68945	-1005.10614	751.77368	-1681.30383	-884.81775	1390.29102	-1282.91003	-910.84509	1190.22131	-1171.69629	-889.19867	1064.26489	-1164.96851	-810.61981	967.19073	-1148.82214	-690.06866	902.19891	-1188.43628	-722.77631	881.45404	-1145.64014	-653.66077	834.26605	-1155.85547	-847.13135	932.11768	-1533.23279	-850.07092	929.41083	-1315.24011	-1035.13306	945.27942	-1486.24231	-1035.0968	952.80695	-1342.30957	-816.09747	611.25488	-1604.01746	-783.62213	483.90115	-1579.38477	-773.44672	299.52194	-1589.34998	-708.41132	84.3914	-1542.41626	-733.70593	43.59554	-1482.32849	-561.17303	91.17578	-1559.49744	-966.9646	606.19159	-1273.33679	-995.88031	448.91318	-1303.5802	-1085.0658	296.16165	-1303.35046	-1152.4707	98.88349	-1360.46179	-1206.21716	72.8063	-1410.72363	-1018.09961	39.99542	-1375.00671	-817.34247	1709.35278	-1398.10388	-1973.1322	1023.28748	3101.86011	-2012.59375	1022.02759	3140.56128	NaN	NaN	NaN
72	0.71	-818.97797	1668.81982	-1490.48364	-793.05518	1674.71143	-1379.40796	-933.64514	1623.82568	-1469.03442	-910.47528	1629.03296	-1351.32263	-965.62164	1430.85107	-1426.14978	-1006.28937	1139.06409	-1421.4967	-823.13629	1360.79089	-1439.12964	-782.59308	1206.10266	-1446.84192	-1017.00024	1237.68787	-1343.66418	-900.65918	1394.72705	-1593.50598	-967.64056	1215.35303	-1668.27319	-1005.64795	1071.99731	-1659.8584	-1000.95117	958.25562	-1682.18506	-963.36719	823.57629	-1656.24817	-1015.31537	836.62213	-1685.95532	-997.50342	750.46429	-1681.09326	-875.36157	1389.85632	-1284.4563	-901.12292	1190.11499	-1172.76538	-879.43738	1064.05469	-1165.71143	-800.93091	967.10669	-1149.48315	-680.33624	901.96771	-1189.07629	-712.93109	881.35748	-1146.17395	-643.88275	834.17206	-1156.44678	-836.36676	930.98993	-1533.40015	-840.66571	928.7406	-1315.38	-1024.73364	944.44122	-1487.7771	-1025.33325	952.19354	-1343.85095	-806.04834	610.17267	-1603.995	-773.63953	483.06213	-1579.36865	-761.16986	298.70712	-1588.71741	-693.78143	84.45725	-1541.37195	-718.92023	43.24132	-1481.60266	-546.12769	92.69176	-1556.2821	-959.28528	605.91809	-1273.60388	-989.05701	448.61038	-1303.44275	-1080.39136	296.92606	-1303.30212	-1151.09973	100.92598	-1360.02832	-1205.37366	75.91695	-1410.30945	-1017.91766	40.026	-1374.99023	-807.35956	1708.51038	-1400.09497	-1973.10461	1023.3219	3101.92407	-2012.57483	1022.09167	3140.56201	NaN	NaN	NaN
73	0.72	-809.11462	1667.99084	-1492.51489	-783.09393	1673.91101	-1381.48792	-923.86383	1623.19788	-1470.85803	-900.4447	1628.49194	-1353.12244	-955.99927	1430.06116	-1428.03467	-996.28027	1138.18787	-1422.82642	-813.42834	1360.02051	-1440.62549	-772.57446	1205.42615	-1447.93835	-1007.33856	1236.95667	-1345.26904	-890.87451	1393.59668	-1595.22778	-957.97235	1213.9375	-1669.5033	-996.21271	1070.79321	-1660.64502	-991.77893	956.98901	-1682.82068	-954.68488	822.24805	-1656.52295	-1006.57776	835.36865	-1686.18787	-989.17029	749.11694	-1681.0072	-865.81586	1389.30542	-1286.07043	-891.37231	1189.89856	-1174.05359	-869.8111	1063.90137	-1166.56384	-791.32916	966.83209	-1150.21716	-670.70972	901.62634	-1189.48022	-703.54443	880.93549	-1146.72058	-634.67426	833.66864	-1156.99194	-825.53784	929.97028	-1533.5614	-831.04669	928.01599	-1315.4231	-1014.271	943.68463	-1489.34778	-1015.48999	951.60651	-1345.4906	-794.74457	609.55005	-1603.65149	-763.09772	482.24869	-1579.14209	-749.71161	297.96896	-1588.25232	-681.63208	83.79766	-1540.15198	-707.04407	42.61847	-1480.55615	-533.65192	92.66177	-1553.24451	-951.43719	605.80554	-1273.61108	-982.12292	448.45029	-1303.5033	-1075.62952	298.08411	-1303.34229	-1149.42932	103.01126	-1359.39844	-1204.38953	79.16824	-1409.6416	-1017.76611	40.04281	-1374.89221	-797.25977	1707.81812	-1402.30273	-1973.01453	1023.80621	3101.99219	-2012.56116	1022.05621	3140.62598	NaN	NaN	NaN
74	0.73	-799.28552	1667.22876	-1494.62915	-773.02991	1673.20142	-1383.66687	-914.09534	1622.67542	-1472.80359	-890.47644	1627.99097	-1355.1178	-946.3183	1429.18921	-1429.92053	-986.10181	1137.26843	-1424.25879	-803.60602	1359.41052	-1442.3385	-762.56909	1204.8396	-1449.03516	-998.00494	1236.3429	-1347.07861	-881.06671	1392.47925	-1597.0625	-948.11487	1212.55688	-1670.89258	-986.55249	1069.54626	-1661.61279	-982.35883	955.64636	-1683.42944	-945.47552	820.96307	-1656.96912	-997.40375	833.99127	-1686.38464	-980.18958	747.79462	-1681.21667	-856.30975	1388.90442	-1287.77405	-881.82178	1189.84351	-1175.5625	-860.25104	1063.80225	-1167.7074	-782.16071	966.58667	-1150.90332	-662.08362	900.68323	-1190.45667	-694.48956	880.45862	-1147.29785	-625.71313	832.78601	-1157.52014	-814.55347	929.01904	-1533.78088	-821.70325	927.26538	-1315.9259	-1002.79419	942.65173	-1490.8136	-1005.41809	951.008	-1347.13245	-782.30133	609.21973	-1603.01245	-752.03961	481.49869	-1578.54175	-738.98419	296.95428	-1587.61108	-671.99707	82.67973	-1538.83203	-698.15674	41.4445	-1479.45313	-523.71631	90.99411	-1550.24121	-943.25024	605.79614	-1273.92297	-974.5495	448.08304	-1303.21924	-1070.75867	299.46729	-1302.89807	-1148.07471	105.50968	-1358.7843	-1203.28345	82.66547	-1408.82739	-1017.49207	39.98278	-1374.78271	-787.23566	1707.0741	-1404.47095	-1973.172	1023.36511	3101.91016	-2012.54834	1021.99866	3140.58423	NaN	NaN	NaN
